# xmcd
#
# Track frame offsets:
#  150
#  18079
#  38360
#
# Disc length: 758 seconds
#
# Revision: 0
# Processed by: cddbd v1.5.1PL2 Copyright (c) Steve Scherf et al.
# Submitted via: Collectorz.com_Music_Collector 6.9
#
DISCID=1002f403
DTITLE=Shaznay Lewis - Never Felt Like This Before
DYEAR=2004
DGENRE=Pop
TTITLE0=Never Felt Like This Before (Radio Edit)
TTITLE1=Never Felt Like This Before (KO! Remix)
TTITLE2=Safe
EXTD=
EXTT0=
EXTT1=
EXTT2=
PLAYORDER=
